<mxfile host="app.diagrams.net" modified="2023-12-13T07:06:55.325Z" agent="Mozilla/5.0 (Windows NT 10.0; Win64; x64) AppleWebKit/537.36 (KHTML, like Gecko) Chrome/120.0.0.0 Safari/537.36" version="22.1.8" etag="xqQ6fz5e9BMt7_Iy-2i8" type="github">
  <diagram name="Page-1" id="VC0MYwwKzm_H8vHdshh4">
    <mxGraphModel>
      <root>
        <mxCell id="0" />
        <mxCell id="1" parent="0" />
      </root>
    </mxGraphModel>
  </diagram>
</mxfile>
